<svg xmlns="http://www.w3.org/2000/svg" xmlns:xlink="http://www.w3.org/1999/xlink" viewBox="0 0 500 500"><defs><clipPath id="freepik--clip-path--inject-52"><path d="M152.72,162.77s-.4,5.5-6.17,13.27-11.93,15.69-11.93,15.69,2.28,12.88,5,15.83a23.71,23.71,0,0,0,3.35,3.35h-12.2c-3.09,0-6.44-6.7-6.44-6.7l.67,12.6-7.37-.67-.14-9.25-1.88,9.79-10.19-1.61.14-4.83-3,5s-7.51-2.68-9.65-4l-2.15-1.34s9.12-11.8,9.12-23.6,2.55-30.72,12.61-38.09,19-7.11,22.13-6.3,22,10.72,25.34,12.6,4.3,13.28,1.08,16.77-5.5,4.42-5.5,4.42S155.4,165.31,152.72,162.77Z" style="fill:#263238;stroke:#263238;stroke-linecap:round;stroke-linejoin:round;stroke-width:0.9771689772605896px"></path></clipPath></defs><g id="freepik--background-simple--inject-52"><path d="M313.48,66.74s-63-18.55-125.25,19S94.26,193.25,67,249.41s-12.13,111.19,35,134.3,79.6-16,146-21.06,84.21,3.19,139.55-35.7,65.86-124.81,22.81-185.89S313.48,66.74,313.48,66.74Z" style="fill:#1560BD"></path><path d="M313.48,66.74s-63-18.55-125.25,19S94.26,193.25,67,249.41s-12.13,111.19,35,134.3,79.6-16,146-21.06,84.21,3.19,139.55-35.7,65.86-124.81,22.81-185.89S313.48,66.74,313.48,66.74Z" style="fill:#fff;opacity:0.7000000000000001"></path></g><g id="freepik--Menu--inject-52"><rect x="67.36" y="83.71" width="123.02" height="95.82" style="fill:none;stroke:#263238;stroke-linecap:round;stroke-linejoin:round;stroke-width:0.9771689772605896px"></rect><rect x="194.93" y="83.71" width="123.02" height="95.82" style="fill:none;stroke:#263238;stroke-linecap:round;stroke-linejoin:round;stroke-width:0.9771689772605896px"></rect><rect x="322.51" y="83.71" width="123.02" height="95.82" style="fill:none;stroke:#263238;stroke-linecap:round;stroke-linejoin:round;stroke-width:0.9771689772605896px"></rect><line x1="77.3" y1="97.52" x2="116.06" y2="97.52" style="fill:none;stroke:#263238;stroke-linecap:round;stroke-linejoin:round;stroke-width:0.9771689772605896px"></line><line x1="77.3" y1="105.83" x2="116.06" y2="105.83" style="fill:none;stroke:#263238;stroke-linecap:round;stroke-linejoin:round;stroke-width:0.9771689772605896px"></line><line x1="77.3" y1="114.14" x2="116.06" y2="114.14" style="fill:none;stroke:#263238;stroke-linecap:round;stroke-linejoin:round;stroke-width:0.9771689772605896px"></line><line x1="77.3" y1="122.44" x2="116.06" y2="122.44" style="fill:none;stroke:#263238;stroke-linecap:round;stroke-linejoin:round;stroke-width:0.9771689772605896px"></line><line x1="77.3" y1="130.75" x2="116.06" y2="130.75" style="fill:none;stroke:#263238;stroke-linecap:round;stroke-linejoin:round;stroke-width:0.9771689772605896px"></line><line x1="77.3" y1="139.06" x2="116.06" y2="139.06" style="fill:none;stroke:#263238;stroke-linecap:round;stroke-linejoin:round;stroke-width:0.9771689772605896px"></line><line x1="77.3" y1="147.36" x2="116.06" y2="147.36" style="fill:none;stroke:#263238;stroke-linecap:round;stroke-linejoin:round;stroke-width:0.9771689772605896px"></line><line x1="77.3" y1="155.67" x2="116.06" y2="155.67" style="fill:none;stroke:#263238;stroke-linecap:round;stroke-linejoin:round;stroke-width:0.9771689772605896px"></line><line x1="77.3" y1="163.98" x2="116.06" y2="163.98" style="fill:none;stroke:#263238;stroke-linecap:round;stroke-linejoin:round;stroke-width:0.9771689772605896px"></line><line x1="138.21" y1="97.52" x2="176.98" y2="97.52" style="fill:none;stroke:#263238;stroke-linecap:round;stroke-linejoin:round;stroke-width:0.9771689772605896px"></line><line x1="138.21" y1="105.83" x2="176.98" y2="105.83" style="fill:none;stroke:#263238;stroke-linecap:round;stroke-linejoin:round;stroke-width:0.9771689772605896px"></line><line x1="138.21" y1="114.14" x2="176.98" y2="114.14" style="fill:none;stroke:#263238;stroke-linecap:round;stroke-linejoin:round;stroke-width:0.9771689772605896px"></line><line x1="138.21" y1="122.44" x2="176.98" y2="122.44" style="fill:none;stroke:#263238;stroke-linecap:round;stroke-linejoin:round;stroke-width:0.9771689772605896px"></line><line x1="138.21" y1="130.75" x2="176.98" y2="130.75" style="fill:none;stroke:#263238;stroke-linecap:round;stroke-linejoin:round;stroke-width:0.9771689772605896px"></line><line x1="138.21" y1="139.06" x2="176.98" y2="139.06" style="fill:none;stroke:#263238;stroke-linecap:round;stroke-linejoin:round;stroke-width:0.9771689772605896px"></line><line x1="138.21" y1="147.36" x2="176.98" y2="147.36" style="fill:none;stroke:#263238;stroke-linecap:round;stroke-linejoin:round;stroke-width:0.9771689772605896px"></line><line x1="138.21" y1="155.67" x2="176.98" y2="155.67" style="fill:none;stroke:#263238;stroke-linecap:round;stroke-linejoin:round;stroke-width:0.9771689772605896px"></line><line x1="138.21" y1="163.98" x2="176.98" y2="163.98" style="fill:none;stroke:#263238;stroke-linecap:round;stroke-linejoin:round;stroke-width:0.9771689772605896px"></line><line x1="205.78" y1="97.52" x2="244.54" y2="97.52" style="fill:none;stroke:#263238;stroke-linecap:round;stroke-linejoin:round;stroke-width:0.9771689772605896px"></line><line x1="205.78" y1="105.83" x2="244.54" y2="105.83" style="fill:none;stroke:#263238;stroke-linecap:round;stroke-linejoin:round;stroke-width:0.9771689772605896px"></line><line x1="205.78" y1="114.14" x2="244.54" y2="114.14" style="fill:none;stroke:#263238;stroke-linecap:round;stroke-linejoin:round;stroke-width:0.9771689772605896px"></line><line x1="205.78" y1="122.44" x2="244.54" y2="122.44" style="fill:none;stroke:#263238;stroke-linecap:round;stroke-linejoin:round;stroke-width:0.9771689772605896px"></line><line x1="205.78" y1="130.75" x2="244.54" y2="130.75" style="fill:none;stroke:#263238;stroke-linecap:round;stroke-linejoin:round;stroke-width:0.9771689772605896px"></line><line x1="205.78" y1="139.06" x2="244.54" y2="139.06" style="fill:none;stroke:#263238;stroke-linecap:round;stroke-linejoin:round;stroke-width:0.9771689772605896px"></line><line x1="205.78" y1="147.36" x2="244.54" y2="147.36" style="fill:none;stroke:#263238;stroke-linecap:round;stroke-linejoin:round;stroke-width:0.9771689772605896px"></line><line x1="205.78" y1="155.67" x2="244.54" y2="155.67" style="fill:none;stroke:#263238;stroke-linecap:round;stroke-linejoin:round;stroke-width:0.9771689772605896px"></line><line x1="205.78" y1="163.98" x2="244.54" y2="163.98" style="fill:none;stroke:#263238;stroke-linecap:round;stroke-linejoin:round;stroke-width:0.9771689772605896px"></line><line x1="266.69" y1="97.52" x2="305.46" y2="97.52" style="fill:none;stroke:#263238;stroke-linecap:round;stroke-linejoin:round;stroke-width:0.9771689772605896px"></line><line x1="266.69" y1="105.83" x2="305.46" y2="105.83" style="fill:none;stroke:#263238;stroke-linecap:round;stroke-linejoin:round;stroke-width:0.9771689772605896px"></line><line x1="266.69" y1="114.14" x2="305.46" y2="114.14" style="fill:none;stroke:#263238;stroke-linecap:round;stroke-linejoin:round;stroke-width:0.9771689772605896px"></line><line x1="266.69" y1="122.44" x2="305.46" y2="122.44" style="fill:none;stroke:#263238;stroke-linecap:round;stroke-linejoin:round;stroke-width:0.9771689772605896px"></line><line x1="266.69" y1="130.75" x2="305.46" y2="130.75" style="fill:none;stroke:#263238;stroke-linecap:round;stroke-linejoin:round;stroke-width:0.9771689772605896px"></line><line x1="266.69" y1="139.06" x2="305.46" y2="139.06" style="fill:none;stroke:#263238;stroke-linecap:round;stroke-linejoin:round;stroke-width:0.9771689772605896px"></line><line x1="266.69" y1="147.36" x2="305.46" y2="147.36" style="fill:none;stroke:#263238;stroke-linecap:round;stroke-linejoin:round;stroke-width:0.9771689772605896px"></line><line x1="266.69" y1="155.67" x2="305.46" y2="155.67" style="fill:none;stroke:#263238;stroke-linecap:round;stroke-linejoin:round;stroke-width:0.9771689772605896px"></line><line x1="266.69" y1="163.98" x2="305.46" y2="163.98" style="fill:none;stroke:#263238;stroke-linecap:round;stroke-linejoin:round;stroke-width:0.9771689772605896px"></line><line x1="334.26" y1="97.52" x2="373.02" y2="97.52" style="fill:none;stroke:#263238;stroke-linecap:round;stroke-linejoin:round;stroke-width:0.9771689772605896px"></line><line x1="334.26" y1="105.83" x2="373.02" y2="105.83" style="fill:none;stroke:#263238;stroke-linecap:round;stroke-linejoin:round;stroke-width:0.9771689772605896px"></line><line x1="334.26" y1="114.14" x2="373.02" y2="114.14" style="fill:none;stroke:#263238;stroke-linecap:round;stroke-linejoin:round;stroke-width:0.9771689772605896px"></line><line x1="334.26" y1="122.44" x2="373.02" y2="122.44" style="fill:none;stroke:#263238;stroke-linecap:round;stroke-linejoin:round;stroke-width:0.9771689772605896px"></line><line x1="334.26" y1="130.75" x2="373.02" y2="130.75" style="fill:none;stroke:#263238;stroke-linecap:round;stroke-linejoin:round;stroke-width:0.9771689772605896px"></line><line x1="334.26" y1="139.06" x2="373.02" y2="139.06" style="fill:none;stroke:#263238;stroke-linecap:round;stroke-linejoin:round;stroke-width:0.9771689772605896px"></line><line x1="334.26" y1="147.36" x2="373.02" y2="147.36" style="fill:none;stroke:#263238;stroke-linecap:round;stroke-linejoin:round;stroke-width:0.9771689772605896px"></line><line x1="334.26" y1="155.67" x2="373.02" y2="155.67" style="fill:none;stroke:#263238;stroke-linecap:round;stroke-linejoin:round;stroke-width:0.9771689772605896px"></line><line x1="334.26" y1="163.98" x2="373.02" y2="163.98" style="fill:none;stroke:#263238;stroke-linecap:round;stroke-linejoin:round;stroke-width:0.9771689772605896px"></line><line x1="395.17" y1="97.52" x2="433.94" y2="97.52" style="fill:none;stroke:#263238;stroke-linecap:round;stroke-linejoin:round;stroke-width:0.9771689772605896px"></line><line x1="395.17" y1="105.83" x2="433.94" y2="105.83" style="fill:none;stroke:#263238;stroke-linecap:round;stroke-linejoin:round;stroke-width:0.9771689772605896px"></line><line x1="395.17" y1="114.14" x2="433.94" y2="114.14" style="fill:none;stroke:#263238;stroke-linecap:round;stroke-linejoin:round;stroke-width:0.9771689772605896px"></line><line x1="395.17" y1="122.44" x2="433.94" y2="122.44" style="fill:none;stroke:#263238;stroke-linecap:round;stroke-linejoin:round;stroke-width:0.9771689772605896px"></line><line x1="395.17" y1="130.75" x2="433.94" y2="130.75" style="fill:none;stroke:#263238;stroke-linecap:round;stroke-linejoin:round;stroke-width:0.9771689772605896px"></line><line x1="395.17" y1="139.06" x2="433.94" y2="139.06" style="fill:none;stroke:#263238;stroke-linecap:round;stroke-linejoin:round;stroke-width:0.9771689772605896px"></line><line x1="395.17" y1="147.36" x2="433.94" y2="147.36" style="fill:none;stroke:#263238;stroke-linecap:round;stroke-linejoin:round;stroke-width:0.9771689772605896px"></line><line x1="395.17" y1="155.67" x2="433.94" y2="155.67" style="fill:none;stroke:#263238;stroke-linecap:round;stroke-linejoin:round;stroke-width:0.9771689772605896px"></line><line x1="395.17" y1="163.98" x2="433.94" y2="163.98" style="fill:none;stroke:#263238;stroke-linecap:round;stroke-linejoin:round;stroke-width:0.9771689772605896px"></line></g><g id="freepik--Device--inject-52"><polygon points="263.41 46.97 245.94 46.97 249.43 28.82 259.91 28.82 263.41 46.97" style="fill:#1560BD;stroke:#263238;stroke-linecap:round;stroke-linejoin:round;stroke-width:0.9771689772605896px"></polygon><polygon points="245.94 46.97 263.41 46.97 262.36 41.52 246.99 41.52 245.94 46.97" style="fill:#263238;stroke:#263238;stroke-linecap:round;stroke-linejoin:round;stroke-width:0.9771689772605896px"></polygon><rect x="253.02" y="84.08" width="4.34" height="159.07" style="fill:#fff;stroke:#263238;stroke-linecap:round;stroke-linejoin:round;stroke-width:0.9771689772605896px"></rect><rect x="241.62" y="46.17" width="26.11" height="50.07" style="fill:#fff;stroke:#263238;stroke-linecap:round;stroke-linejoin:round;stroke-width:0.9771689772605896px"></rect><rect x="241.62" y="89.44" width="26.11" height="6.79" style="fill:#263238;stroke:#263238;stroke-linecap:round;stroke-linejoin:round;stroke-width:0.9771689772605896px"></rect><path d="M246.6,81.7a11.33,11.33,0,0,1,.68-4,15.13,15.13,0,0,1,1.66-3.29q1-1.45,2.59-3.43c1.1-1.36,2-2.52,2.61-3.46a15.14,15.14,0,0,0,1.64-3.27,11.54,11.54,0,0,0,.68-4,4.42,4.42,0,0,0-.37-2,1.34,1.34,0,0,0-1.31-.72c-1.05,0-1.57.94-1.57,2.81v3.83H246.6l-.07-1.93a19.65,19.65,0,0,1,.73-5.87,6.35,6.35,0,0,1,2.56-3.51,9.06,9.06,0,0,1,5-1.2,8.11,8.11,0,0,1,6.09,2.21,8.55,8.55,0,0,1,2.16,6.25,14.62,14.62,0,0,1-.71,4.69,15.83,15.83,0,0,1-1.76,3.67q-1,1.57-2.75,3.69c-.83,1-1.51,1.88-2.06,2.66a22.26,22.26,0,0,0-1.48,2.41h8.54V83.2H246.6Z" style="fill:#263238"></path><rect x="293.47" y="294.36" width="82.97" height="161.65" style="fill:#263238;stroke:#263238;stroke-linecap:round;stroke-linejoin:round;stroke-width:0.9771689772605896px"></rect><path d="M364.09,359.51,357.57,316h-7.29l-2.94-5a7.19,7.19,0,0,0-6.22-3.56h-10a7.19,7.19,0,0,0-5.86,3l-4,5.57h-8.38l-5.45,42.38a14.94,14.94,0,0,0,4.73,12.92l2.87,2.63h43.63l2.24-2.74A14.92,14.92,0,0,0,364.09,359.51Zm-34.22-47.8h11.81L344,316H327.62Z" style="fill:#1560BD;stroke:#263238;stroke-linecap:round;stroke-linejoin:round;stroke-width:0.9771689772605896px"></path><rect x="293.47" y="294.36" width="82.97" height="5.58" style="fill:#787878;stroke:#263238;stroke-linecap:round;stroke-linejoin:round;stroke-width:0.9771689772605896px"></rect><rect x="293.47" y="373.54" width="82.97" height="82.47" style="fill:#fff;stroke:#263238;stroke-linecap:round;stroke-linejoin:round;stroke-width:0.9771689772605896px"></rect><rect x="293.47" y="373.54" width="82.97" height="9.14" style="fill:#787878;stroke:#263238;stroke-linecap:round;stroke-linejoin:round;stroke-width:0.9771689772605896px"></rect><polygon points="127.89 343.71 178.32 363.03 178.32 343.71 127.89 343.71" style="fill:#787878;stroke:#263238;stroke-linecap:round;stroke-linejoin:round;stroke-width:0.9771689772605896px"></polygon><rect x="97.85" y="341.21" width="83.68" height="4.29" style="fill:#fff;stroke:#263238;stroke-linecap:round;stroke-linejoin:round;stroke-width:0.9771689772605896px"></rect><rect x="293.83" y="213.9" width="4.65" height="12.52" style="fill:#263238;stroke:#263238;stroke-linecap:round;stroke-linejoin:round;stroke-width:0.9771689772605896px"></rect><rect x="175.46" y="234.57" width="119.09" height="62.66" style="fill:#263238;stroke:#263238;stroke-linecap:round;stroke-linejoin:round;stroke-width:0.9771689772605896px"></rect><rect x="251.23" y="234.57" width="43.32" height="62.66" style="fill:#fff;stroke:#263238;stroke-linecap:round;stroke-linejoin:round;stroke-width:0.9771689772605896px"></rect><rect x="260.54" y="286.53" width="24.7" height="10.69" style="fill:#787878;stroke:#263238;stroke-linecap:round;stroke-linejoin:round;stroke-width:0.9771689772605896px"></rect><rect x="175.46" y="293.93" width="119.09" height="162.08" style="fill:#fff;stroke:#263238;stroke-linecap:round;stroke-linejoin:round;stroke-width:0.9771689772605896px"></rect><rect x="175.46" y="293.93" width="119.09" height="62.66" style="fill:#787878;stroke:#263238;stroke-linecap:round;stroke-linejoin:round;stroke-width:0.9771689772605896px"></rect><rect x="175.73" y="174.2" width="77.25" height="60.37" style="fill:#263238;stroke:#263238;stroke-linecap:round;stroke-linejoin:round;stroke-width:0.9771689772605896px"></rect><rect x="179.34" y="179.36" width="70.02" height="51.4" style="fill:#1560BD;stroke:#263238;stroke-linecap:round;stroke-linejoin:round;stroke-width:0.9771689772605896px"></rect><line x1="185.04" y1="185.8" x2="203.77" y2="185.8" style="fill:none;stroke:#263238;stroke-linecap:round;stroke-linejoin:round;stroke-width:0.9771689772605896px"></line><line x1="185.04" y1="189.89" x2="203.77" y2="189.89" style="fill:none;stroke:#263238;stroke-linecap:round;stroke-linejoin:round;stroke-width:0.9771689772605896px"></line><line x1="185.04" y1="193.97" x2="203.77" y2="193.97" style="fill:none;stroke:#263238;stroke-linecap:round;stroke-linejoin:round;stroke-width:0.9771689772605896px"></line><line x1="185.04" y1="198.06" x2="203.77" y2="198.06" style="fill:none;stroke:#263238;stroke-linecap:round;stroke-linejoin:round;stroke-width:0.9771689772605896px"></line><line x1="185.04" y1="206.91" x2="203.77" y2="206.91" style="fill:none;stroke:#263238;stroke-linecap:round;stroke-linejoin:round;stroke-width:0.9771689772605896px"></line><line x1="185.04" y1="210.99" x2="203.77" y2="210.99" style="fill:none;stroke:#263238;stroke-linecap:round;stroke-linejoin:round;stroke-width:0.9771689772605896px"></line><line x1="185.04" y1="215.08" x2="203.77" y2="215.08" style="fill:none;stroke:#263238;stroke-linecap:round;stroke-linejoin:round;stroke-width:0.9771689772605896px"></line><line x1="185.04" y1="219.16" x2="203.77" y2="219.16" style="fill:none;stroke:#263238;stroke-linecap:round;stroke-linejoin:round;stroke-width:0.9771689772605896px"></line><line x1="218.75" y1="185.8" x2="237.47" y2="185.8" style="fill:none;stroke:#263238;stroke-linecap:round;stroke-linejoin:round;stroke-width:0.9771689772605896px"></line><line x1="218.75" y1="189.89" x2="237.47" y2="189.89" style="fill:none;stroke:#263238;stroke-linecap:round;stroke-linejoin:round;stroke-width:0.9771689772605896px"></line><line x1="218.75" y1="193.97" x2="237.47" y2="193.97" style="fill:none;stroke:#263238;stroke-linecap:round;stroke-linejoin:round;stroke-width:0.9771689772605896px"></line><line x1="218.75" y1="198.06" x2="237.47" y2="198.06" style="fill:none;stroke:#263238;stroke-linecap:round;stroke-linejoin:round;stroke-width:0.9771689772605896px"></line><rect x="173.76" y="230.7" width="81.18" height="6.79" rx="2.32" style="fill:#787878;stroke:#263238;stroke-linecap:round;stroke-linejoin:round;stroke-width:0.9771689772605896px"></rect><path d="M289.09,235.35H259.35a4.05,4.05,0,0,1-4-3.39,106.45,106.45,0,0,1-1.56-12.34,144,144,0,0,1,1.61-14.42,4.07,4.07,0,0,1,4-3.46H289a4.05,4.05,0,0,1,4,3.37c.74,4.36,1.91,11.75,1.91,14.87,0,2.53-1.08,8.39-1.82,12.1A4.06,4.06,0,0,1,289.09,235.35Z" style="fill:#263238;stroke:#263238;stroke-linecap:round;stroke-linejoin:round;stroke-width:0.9771689772605896px"></path><rect x="259.5" y="207.63" width="29.68" height="21.83" style="fill:#1560BD;stroke:#263238;stroke-linecap:round;stroke-linejoin:round;stroke-width:0.9771689772605896px"></rect><rect x="256.64" y="197.8" width="34.33" height="3.93" rx="1.83" style="fill:#263238;stroke:#263238;stroke-linecap:round;stroke-linejoin:round;stroke-width:0.9771689772605896px"></rect><rect x="257" y="301.16" width="32.19" height="31.83" style="fill:#263238;stroke:#263238;stroke-linecap:round;stroke-linejoin:round;stroke-width:0.9771689772605896px"></rect><rect x="261.29" y="304.73" width="24.32" height="4.65" style="fill:#fff;stroke:#263238;stroke-linecap:round;stroke-linejoin:round;stroke-width:0.9771689772605896px"></rect><path d="M175.46,356.59s46.49,11.8,119.09,0Z" style="fill:#263238;stroke:#263238;stroke-linecap:round;stroke-linejoin:round;stroke-width:0.9771689772605896px"></path><rect x="260.93" y="243.22" width="25.75" height="4.29" style="fill:#263238;stroke:#263238;stroke-linecap:round;stroke-linejoin:round;stroke-width:0.9771689772605896px"></rect><rect x="303.49" y="410.07" width="64.02" height="38.43" style="fill:#fff;stroke:#263238;stroke-linecap:round;stroke-linejoin:round;stroke-width:0.9771689772605896px"></rect><rect x="358.2" y="427.04" width="6.44" height="5.36" style="fill:#263238;stroke:#263238;stroke-linecap:round;stroke-linejoin:round;stroke-width:0.9771689772605896px"></rect><path d="M224,356.59a17.51,17.51,0,0,0-34.13,0Z" style="fill:#263238;stroke:#263238;stroke-linecap:round;stroke-linejoin:round;stroke-width:0.9771689772605896px"></path><path d="M189.86,294A17.51,17.51,0,0,0,224,294Z" style="fill:#263238;stroke:#263238;stroke-linecap:round;stroke-linejoin:round;stroke-width:0.9771689772605896px"></path></g><g id="freepik--Character--inject-52"><path d="M115.53,439v16.36H119V445.2s1.87-1.07,3.75,1.34,5.37,8,7.51,8.85,19.81.68,22.07.43c1.86-.2,1.27-2-1.42-3.11s-11.53-6.43-12.87-8.85-2.95-6.17-2.95-6.17Z" style="fill:#636363;stroke:#263238;stroke-linecap:round;stroke-linejoin:round;stroke-width:0.9771689772605896px"></path><path d="M99.61,439v16.36h3.49V445.2s1.88-1.07,3.76,1.34,5.36,8,7.51,8.85,19.8.68,22.06.43c1.87-.2,1.27-2-1.41-3.11s-11.53-6.43-12.88-8.85-3-6.17-3-6.17Z" style="fill:#636363;stroke:#263238;stroke-linecap:round;stroke-linejoin:round;stroke-width:0.9771689772605896px"></path><path d="M155.54,175.64a76.22,76.22,0,0,1-2,7.51,11.13,11.13,0,0,0,.13,6.71,4.43,4.43,0,0,1-1.47,4.56,8.61,8.61,0,0,1-3.22.94s-5.5,7.24-7.78,8.85-4.56-.67-6.3-2.42-7.78-9-6-13,12.2-21.05,14.62-27.62,10.86-4.16,13.28-.54S155.54,175.64,155.54,175.64Z" style="fill:#fff;stroke:#263238;stroke-linecap:round;stroke-linejoin:round;stroke-width:0.9771689772605896px"></path><path d="M151.5,184c-.49.91-1.2,1.49-1.59,1.28s-.32-1.12.16-2,1.2-1.49,1.6-1.28S152,183.1,151.5,184Z" style="fill:#263238"></path><path d="M149.77,179.53s2.82-1.74,3.22.54" style="fill:none;stroke:#263238;stroke-linecap:round;stroke-linejoin:round;stroke-width:0.9771689772605896px"></path><path d="M142.66,194a4.21,4.21,0,0,0,2.55,3" style="fill:none;stroke:#263238;stroke-linecap:round;stroke-linejoin:round;stroke-width:0.9771689772605896px"></path><path d="M154.18,254.8s21.47-4.59,25.77-4.73,21.72,3,21.72,3l-9.52,6.71s-6.44.53-9.39-.14-7-2-7-2l-17.18,7.68Z" style="fill:#fff;stroke:#263238;stroke-linecap:round;stroke-linejoin:round;stroke-width:0.9771689772605896px"></path><polygon points="219.24 285.75 176.59 278.24 177.13 267.64 218.84 274.61 219.24 285.75" style="fill:#fff;stroke:#263238;stroke-linecap:round;stroke-linejoin:round;stroke-width:0.9771689772605896px"></polygon><polygon points="246.2 256.24 245.93 267.24 219.24 285.75 218.84 274.61 246.2 256.24" style="fill:#fff;stroke:#263238;stroke-linecap:round;stroke-linejoin:round;stroke-width:0.9771689772605896px"></polygon><polygon points="202.34 250.07 177.13 267.64 218.84 274.61 246.2 256.24 202.34 250.07" style="fill:#fff;stroke:#263238;stroke-linecap:round;stroke-linejoin:round;stroke-width:0.9771689772605896px"></polygon><path d="M148.43,376.27s-3.75,42.11-3.75,51v12.34h-15s-.8-4.56,3-23.07S148.43,376.27,148.43,376.27Z" style="fill:#263238;stroke:#263238;stroke-linecap:round;stroke-linejoin:round;stroke-width:0.9771689772605896px"></path><path d="M90.23,295.54S88.35,310.82,92.64,321s11.8,29.23,11.8,35.94-5.36,32.72-6.7,51.76a160.89,160.89,0,0,0,.8,32.73l32.46.27s5.63-33.8,15.28-54.45,11.81-41.31,11.81-62-.27-31.38-.27-31.38-21.19-11.54-34.6-10.2S90.23,295.54,90.23,295.54Z" style="fill:#263238;stroke:#263238;stroke-linecap:round;stroke-linejoin:round;stroke-width:0.9771689772605896px"></path><path d="M101.49,434.47a116,116,0,0,1,23.07-38.62c16.63-18.24,22-29.5,23.07-38.09" style="fill:none;stroke:#707070;stroke-linecap:round;stroke-linejoin:round;stroke-width:0.9771689772605896px"></path><path d="M129.65,378.15a180.36,180.36,0,0,0-17.16,22.53c-9.12,13.95-9.12,19-9.12,19" style="fill:none;stroke:#707070;stroke-linecap:round;stroke-linejoin:round;stroke-width:0.9771689772605896px"></path><path d="M104.6,353.27a95.87,95.87,0,0,0-1.77-27.78" style="fill:none;stroke:#707070;stroke-linecap:round;stroke-linejoin:round;stroke-width:0.9771689772605896px"></path><path d="M147.49,217.89s-10.86-12.34-22-16.63-24.54,0-28.57,7.51S89.29,231,91,239.34s10.19,20.92,8.58,29.11-12.47,25.21-12.33,26.68,3,13,20.11,8.05,21.06-14.48,33.53-10.46,17.84,10.59,22,11.8l4.16,1.21s-7.51-22.4-9.25-33.8-.67-12.2,1.21-17a29.43,29.43,0,0,0-.14-20.65C155.81,226.74,147.49,217.89,147.49,217.89Z" style="fill:#1560BD;stroke:#263238;stroke-linecap:round;stroke-linejoin:round;stroke-width:0.9771689772605896px"></path><path d="M111.4,247.62a38.46,38.46,0,0,0,21.75,12.59" style="fill:none;stroke:#263238;stroke-linecap:round;stroke-linejoin:round;stroke-width:0.9771689772605896px"></path><path d="M109,261.5c.22.34.44.67.67,1" style="fill:none;stroke:#263238;stroke-linecap:round;stroke-linejoin:round;stroke-width:0.9771689772605896px"></path><path d="M100,224.15a59.35,59.35,0,0,0,7,34" style="fill:none;stroke:#263238;stroke-linecap:round;stroke-linejoin:round;stroke-width:0.9771689772605896px"></path><path d="M152.72,162.77s-.4,5.5-6.17,13.27-11.93,15.69-11.93,15.69,2.28,12.88,5,15.83a23.71,23.71,0,0,0,3.35,3.35h-12.2c-3.09,0-6.44-6.7-6.44-6.7l.67,12.6-7.37-.67-.14-9.25-1.88,9.79-10.19-1.61.14-4.83-3,5s-7.51-2.68-9.65-4l-2.15-1.34s9.12-11.8,9.12-23.6,2.55-30.72,12.61-38.09,19-7.11,22.13-6.3,22,10.72,25.34,12.6,4.3,13.28,1.08,16.77-5.5,4.42-5.5,4.42S155.4,165.31,152.72,162.77Z" style="fill:#263238"></path><g style="clip-path:url(#freepik--clip-path--inject-52)"><path d="M152.72,162.77s8.35-1,6.28-4.75S140.06,146,132.14,146.31" style="fill:none;stroke:#707070;stroke-linecap:round;stroke-linejoin:round;stroke-width:0.9771689772605896px"></path><path d="M145.57,150.79s-10.67,4.82-14.8,16.53a25.76,25.76,0,0,0,1.72,21" style="fill:none;stroke:#707070;stroke-linecap:round;stroke-linejoin:round;stroke-width:0.9771689772605896px"></path><path d="M135.93,147.35s-13.08,4.47-21.69,20-8.27,44.42-6.54,53.37" style="fill:none;stroke:#707070;stroke-linecap:round;stroke-linejoin:round;stroke-width:0.9771689772605896px"></path><path d="M123.88,146s-18.94,9.3-26.86,38.22" style="fill:none;stroke:#707070;stroke-linecap:round;stroke-linejoin:round;stroke-width:0.9771689772605896px"></path></g><path d="M152.72,162.77s-.4,5.5-6.17,13.27-11.93,15.69-11.93,15.69,2.28,12.88,5,15.83a23.71,23.71,0,0,0,3.35,3.35h-12.2c-3.09,0-6.44-6.7-6.44-6.7l.67,12.6-7.37-.67-.14-9.25-1.88,9.79-10.19-1.61.14-4.83-3,5s-7.51-2.68-9.65-4l-2.15-1.34s9.12-11.8,9.12-23.6,2.55-30.72,12.61-38.09,19-7.11,22.13-6.3,22,10.72,25.34,12.6,4.3,13.28,1.08,16.77-5.5,4.42-5.5,4.42S155.4,165.31,152.72,162.77Z" style="fill:none;stroke:#263238;stroke-linecap:round;stroke-linejoin:round;stroke-width:0.9771689772605896px"></path><path d="M168,267.86s20.77,5.2,27.48,6.83,6.83,1.76,7.38,1.69,4.37-4.55,6.06-5.32,5.18-.56,7.09-.77,2.79.42,1.56,1.91-3.39,1.54-4.14,2.28-1.39,1.74-.38,2.39,9.67,8.39,9.87,9.08-.54,1.29-1.78,1.57-3.41-.88-4.68-.33a45.44,45.44,0,0,1-6.48,1.36c-2.33.44-9.73-3.68-9.73-3.68s-20.7.74-29.35.95-13.46-1.5-15.09-4.09S168,267.86,168,267.86Z" style="fill:#fff;stroke:#263238;stroke-linecap:round;stroke-linejoin:round;stroke-width:0.9771689772605896px"></path><path d="M163.16,264.82s-9.13-17.64-16.74-30.41-14.5-13.86-22-11.66-7.2,15.32-3.89,25.22S146.6,279.32,148,280.53s10.75,1.63,15.58-3.41S163.16,264.82,163.16,264.82Z" style="fill:#1560BD;stroke:#263238;stroke-linecap:round;stroke-linejoin:round;stroke-width:0.9771689772605896px"></path><path d="M161.8,262.25s-2.78,7.54-7.72,11.08-9.29,2.57-9.61,4.42,3.54,6.29,8,7.15,13.09-2.85,15.69-9.87-.53-9.49-2.31-10.48S163.66,261.23,161.8,262.25Z" style="fill:#1560BD;stroke:#263238;stroke-linecap:round;stroke-linejoin:round;stroke-width:0.9771689772605896px"></path><path d="M185,253.83a48.41,48.41,0,0,0,9.26,2.41c4.29.54,5.76.14,5.23,1.48s-.81,2.41-4.56,2-7-1.34-8.45-1.07a32.15,32.15,0,0,1-7.24.67,4.47,4.47,0,0,1-4-2.28" style="fill:#fff;stroke:#263238;stroke-linecap:round;stroke-linejoin:round;stroke-width:0.9771689772605896px"></path></g><g id="freepik--Plants--inject-52"><path d="M404.8,421.67s-25.89-45.46-19.91-57,21.24,9.25,21.24,9.25-13.28-42.38-6-60.88,19.91,0,20.58,13.1-2.66,35.45-2.66,35.45,5.31-46.23,17.92-32.36-15.93,60.1-15.93,60.1,19.25-10.79,18.59,3.08-23.23,26.2-23.23,26.2" style="fill:#1560BD"></path><path d="M405,413.2s-24-22.35-12.29-32.37,17.82,10.79,17.82,10.79-12.9-64,8-66.27,5.53,55.48,5.53,55.48,17.81-24.65,16.59-4.62-27.65,37-27.65,37" style="fill:none;stroke:#263238;stroke-miterlimit:10;stroke-width:0.9771689772605896px"></path><line x1="416.79" y1="409.13" x2="400.59" y2="391.59" style="fill:none;stroke:#263238;stroke-miterlimit:10;stroke-width:0.9771689772605896px"></line><line x1="413.41" y1="410.48" x2="417.8" y2="359.21" style="fill:none;stroke:#263238;stroke-miterlimit:10;stroke-width:0.9771689772605896px"></line><line x1="412.74" y1="406.77" x2="427.24" y2="387.54" style="fill:none;stroke:#263238;stroke-miterlimit:10;stroke-width:0.9771689772605896px"></line><polygon points="433.72 403.19 388.94 403.19 393.41 456.01 429.24 456.01 433.72 403.19" style="fill:#263238"></polygon></g><g id="freepik--Floor--inject-52"><line x1="468" y1="456.01" x2="40" y2="456.01" style="fill:none;stroke:#263238;stroke-linecap:round;stroke-linejoin:round;stroke-width:0.9771689772605896px"></line></g></svg>